<?xml version="1.0" standalone="no"?>
<!DOCTYPE svg PUBLIC "-//W3C//DTD SVG 20010904//EN"
 "http://www.w3.org/TR/2001/REC-SVG-20010904/DTD/svg10.dtd">
<svg version="1.0" xmlns="http://www.w3.org/2000/svg"
 width="700.000000pt" height="700.000000pt" viewBox="0 0 700.000000 700.000000"
 preserveAspectRatio="xMidYMid meet">
<metadata>
Created by potrace 1.14, written by Peter Selinger 2001-2017
</metadata>
<g transform="translate(0.000000,700.000000) scale(0.100000,-0.100000)"
fill="#000000" stroke="none">
<path d="M1452 6173 l-1452 -827 0 -2673 0 -2673 3500 0 3500 0 0 3500 0 3500
-2047 0 -2048 -1 -1453 -826z m3070 -174 c283 -59 456 -359 358 -622 -102
-272 -406 -396 -667 -272 -172 81 -273 239 -273 425 0 305 281 532 582 469z
m1121 -753 c137 -49 218 -189 185 -319 -15 -57 -389 -753 -440 -819 -18 -23
-55 -50 -95 -70 -100 -49 -131 -46 -518 56 -181 48 -336 88 -342 91 -11 4
-353 -400 -353 -416 0 -4 17 -11 38 -17 94 -25 474 -143 493 -153 39 -20 100
-83 120 -121 49 -95 41 -214 -18 -298 -16 -21 -102 -103 -193 -181 -233 -202
-484 -424 -633 -562 -150 -139 -200 -167 -297 -167 -85 0 -151 31 -208 95
-101 115 -88 285 31 391 120 107 426 399 422 402 -5 5 -38 12 -269 53 -93 16
-170 28 -171 27 -1 -2 -101 -127 -222 -278 -121 -151 -226 -282 -234 -290 -38
-40 -191 -226 -438 -535 -150 -187 -289 -353 -309 -368 -178 -136 -442 -6
-442 218 0 78 18 114 133 283 52 76 212 315 357 532 145 217 343 512 440 655
97 143 198 298 223 345 26 47 139 218 252 380 172 248 202 296 187 302 -20 9
-318 78 -336 78 -7 0 -38 -78 -76 -197 -34 -109 -71 -214 -81 -234 -79 -157
-302 -199 -437 -83 -58 49 -92 123 -92 199 0 73 158 753 192 829 45 98 160
166 282 166 56 0 1084 -138 1296 -174 47 -8 123 -30 170 -49 47 -19 240 -99
429 -176 189 -78 347 -139 350 -136 3 3 74 110 156 238 128 197 158 237 199
265 26 17 62 36 80 41 46 14 126 12 169 -3z"/>
<path d="M2657 2634 c-200 -20 -530 -73 -541 -85 -43 -52 -311 -461 -322 -491
-26 -74 -11 -156 41 -224 62 -81 202 -108 303 -58 45 22 74 53 224 242 95 119
244 304 332 412 87 107 163 201 169 208 12 15 -30 15 -206 -4z"/>
</g>
</svg>
